<?xml version="1.0" encoding="utf-8"?>
<!-- Generator: Adobe Illustrator 16.0.0, SVG Export Plug-In . SVG Version: 6.00 Build 0)  -->
<!DOCTYPE svg PUBLIC "-//W3C//DTD SVG 1.1//EN" "http://www.w3.org/Graphics/SVG/1.1/DTD/svg11.dtd">
<svg version="1.1" id="Layer_1" xmlns="http://www.w3.org/2000/svg" xmlns:xlink="http://www.w3.org/1999/xlink" x="0px" y="0px"
	 width="400px" height="100px" viewBox="0 0 400 100" enable-background="new 0 0 400 100" xml:space="preserve">
<image overflow="visible" width="501" height="501" xlink:href="amazoncampus.jpg"  transform="matrix(0.216 0 0 0.1988 8.0356 0.4399)">
</image>
<g>
	<rect x="122.642" y="0.439" width="277.358" height="99.562"/>
	<g>
		<g>
			<path fill="#F8981D" d="M261.012,67.694c-11.279,8.757-27.632,13.416-41.714,13.416c-19.735,0-37.507-7.675-50.957-20.453
				c-1.055-1.002-0.113-2.374,1.156-1.597c14.51,8.884,32.454,14.234,50.987,14.234c12.501,0,26.245-2.729,38.889-8.373
				C261.28,64.07,262.879,66.244,261.012,67.694z"/>
			<path fill="#F8981D" d="M265.707,62.058c-1.443-1.944-9.538-0.922-13.174-0.465c-1.101,0.139-1.271-0.872-0.28-1.605
				c6.458-4.771,17.037-3.394,18.267-1.797c1.239,1.612-0.324,12.771-6.375,18.098c-0.932,0.818-1.815,0.382-1.403-0.701
				C264.103,72.011,267.15,64.001,265.707,62.058z"/>
		</g>
		<path fill="#FFFFFF" d="M252.79,26.281v-4.636c0.003-0.706,0.508-1.177,1.117-1.176l19.75-0.001c0.632,0,1.14,0.484,1.141,1.172
			l-0.001,3.976c-0.006,0.667-0.539,1.537-1.487,2.918l-10.231,15.368c3.798-0.094,7.814,0.504,11.266,2.544
			c0.777,0.46,0.985,1.143,1.048,1.811v4.947c0,0.682-0.709,1.471-1.454,1.061c-6.079-3.351-14.146-3.717-20.868,0.04
			c-0.687,0.385-1.406-0.393-1.406-1.074v-4.703c0-0.753,0.015-2.04,0.735-3.187l11.854-17.891l-10.32-0.002
			C253.3,27.447,252.795,26.975,252.79,26.281z"/>
		<path fill="#FFFFFF" d="M180.746,55.238h-6.008c-0.572-0.039-1.028-0.493-1.074-1.069l0.003-32.446c0-0.647,0.52-1.167,1.16-1.167
			l5.596-0.001c0.586,0.032,1.055,0.498,1.092,1.09v4.235h0.113c1.459-4.096,4.206-6.008,7.908-6.008
			c3.757,0,6.113,1.912,7.796,6.008c1.459-4.096,4.768-6.008,8.302-6.008c2.524,0,5.271,1.093,6.955,3.551
			c1.906,2.731,1.514,6.691,1.514,10.173l-0.004,20.475c0,0.648-0.521,1.169-1.16,1.169h-6c-0.604-0.04-1.079-0.544-1.079-1.167
			l-0.001-17.2c0-1.365,0.111-4.779-0.17-6.077c-0.448-2.185-1.794-2.799-3.532-2.799c-1.458,0-2.974,1.023-3.591,2.663
			c-0.616,1.639-0.561,4.369-0.561,6.214V54.07c0,0.648-0.52,1.168-1.158,1.168h-6.001c-0.604-0.04-1.079-0.543-1.079-1.166
			l-0.007-17.199c0-3.619,0.562-8.944-3.701-8.944c-4.319,0-4.15,5.189-4.15,8.944l-0.003,17.197
			C181.905,54.718,181.385,55.238,180.746,55.238z"/>
		<path fill="#FFFFFF" d="M291.798,19.871c8.919,0,13.742,8.057,13.742,18.298c0,9.9-5.327,17.752-13.742,17.752
			c-8.749,0-13.517-8.057-13.517-18.093C278.281,27.723,283.104,19.871,291.798,19.871z M291.854,26.495
			c-4.431,0-4.712,6.349-4.712,10.309c0,3.96-0.055,12.427,4.656,12.427c4.656,0,4.88-6.828,4.88-10.993
			c0-2.731-0.111-6.008-0.897-8.603C295.107,27.382,293.761,26.495,291.854,26.495z"/>
		<path fill="#FFFFFF" d="M317.105,55.238h-5.986c-0.603-0.04-1.078-0.544-1.078-1.167l-0.011-32.457
			c0.051-0.594,0.549-1.058,1.154-1.058l5.574-0.002c0.523,0.029,0.957,0.405,1.068,0.909v4.963h0.112
			c1.683-4.438,4.038-6.555,8.188-6.555c2.692,0,5.328,1.024,7.012,3.824c1.571,2.595,1.571,6.964,1.571,10.105v20.415
			c-0.069,0.575-0.559,1.022-1.152,1.022h-6.023c-0.556-0.038-1.006-0.468-1.07-1.022V36.6c0-3.552,0.393-8.74-3.758-8.74
			c-1.459,0-2.804,1.023-3.478,2.594c-0.841,1.98-0.954,3.959-0.954,6.145v17.471C318.265,54.718,317.746,55.238,317.105,55.238z"/>
		<ellipse fill="#FFFFFF" cx="341.433" cy="52.663" rx="2.955" ry="2.955"/>
		<path fill="#FFFFFF" d="M237.046,39.743c0,2.464,0.056,4.516-1.124,6.706c-0.957,1.779-2.474,2.873-4.16,2.873
			c-2.305,0-3.653-1.848-3.653-4.583c0-5.385,4.591-6.363,8.938-6.363V39.743z M243.103,55.157c-0.397,0.374-0.971,0.4-1.42,0.147
			c-1.995-1.746-2.352-2.553-3.443-4.213c-3.298,3.534-5.635,4.594-9.905,4.594c-5.06,0-8.995-3.283-8.995-9.853
			c0-5.131,2.643-8.621,6.408-10.333c3.261-1.505,7.813-1.778,11.299-2.189v-0.82c0-1.505,0.112-3.285-0.731-4.585
			c-0.729-1.163-2.136-1.642-3.373-1.642c-2.291,0-4.328,1.236-4.828,3.796c-0.104,0.57-0.5,1.132-1.045,1.162l-5.823-0.664
			c-0.491-0.116-1.038-0.531-0.896-1.322c1.337-7.433,7.718-9.679,13.436-9.679c2.924,0,6.746,0.82,9.05,3.148
			c2.924,2.875,2.643,6.705,2.643,10.88v9.849c0,2.962,1.17,4.262,2.268,5.859c0.383,0.575,0.471,1.258-0.02,1.679
			c-1.228,1.081-3.407,3.075-4.608,4.198L243.103,55.157z"/>
		<path fill="#FFFFFF" d="M158.278,39.743c0,2.464,0.056,4.516-1.124,6.706c-0.956,1.779-2.473,2.873-4.16,2.873
			c-2.304,0-3.653-1.848-3.653-4.583c0-5.385,4.59-6.363,8.937-6.363V39.743z M164.336,55.157c-0.399,0.374-0.972,0.4-1.42,0.147
			c-1.996-1.746-2.354-2.553-3.445-4.213c-3.297,3.534-5.634,4.594-9.905,4.594c-5.059,0-8.993-3.283-8.993-9.853
			c0-5.131,2.642-8.621,6.407-10.333c3.26-1.505,7.814-1.778,11.298-2.189v-0.82c0-1.505,0.111-3.285-0.73-4.585
			c-0.731-1.163-2.137-1.642-3.373-1.642c-2.292,0-4.33,1.236-4.83,3.796c-0.104,0.57-0.5,1.132-1.044,1.162l-5.824-0.664
			c-0.492-0.116-1.038-0.531-0.896-1.322c1.338-7.433,7.718-9.679,13.436-9.679c2.924,0,6.745,0.82,9.05,3.148
			c2.923,2.875,2.642,6.705,2.642,10.88v9.849c0,2.962,1.168,4.262,2.267,5.859c0.384,0.575,0.471,1.258-0.018,1.679
			c-1.228,1.081-3.41,3.075-4.608,4.198L164.336,55.157z"/>
		<path fill="#FFFFFF" d="M359.828,20.601h2.4c0.511,0,1.027,0.469,1.027,0.992v4.812c1.677-3.755,4.39-6.482,8.564-6.482
			c3.25,0,5.693,1.223,7.477,3.882c1.893,2.864,2.228,6.817,2.228,10.361v20.063c0,0.531-0.52,0.999-1.03,0.999H377.7
			c-0.514,0-1.027-0.468-1.027-0.999l-0.006-20.063c0-1.976-0.111-4.566-0.945-6.339c-0.801-1.831-2.626-3.269-4.349-3.266
			c-1.794,0.004-4.113,1.384-5.555,3.539c-1.725,2.588-2.17,5.452-2.17,8.726v17.435c-0.004,0.492-0.515,0.971-1.026,0.967h-2.793
			c-0.517,0-1.034-0.494-1.031-0.999l-0.006-32.627C358.791,21.073,359.31,20.601,359.828,20.601z"/>
		<path fill="#FFFFFF" d="M347.537,11.674c0-1.652,1.341-2.989,2.989-2.989c1.652,0,2.991,1.337,2.991,2.989
			c0,1.65-1.339,2.988-2.991,2.988C348.878,14.663,347.537,13.325,347.537,11.674z M351.944,55.232l-2.828-0.002
			c-0.51,0.003-1.027-0.471-1.029-0.99l0.014-32.491c0-0.522,0.516-0.993,1.024-0.993l2.812,0.001c0.515,0,1.03,0.47,1.032,0.992
			v32.497C352.968,54.765,352.46,55.228,351.944,55.232z"/>
	</g>
</g>
</svg>
