<?xml version="1.0" encoding="utf-8"?>
<!-- Generator: Adobe Illustrator 16.0.0, SVG Export Plug-In . SVG Version: 6.00 Build 0)  -->
<!DOCTYPE svg PUBLIC "-//W3C//DTD SVG 1.1//EN" "http://www.w3.org/Graphics/SVG/1.1/DTD/svg11.dtd">
<svg version="1.1" id="Layer_1" xmlns="http://www.w3.org/2000/svg" xmlns:xlink="http://www.w3.org/1999/xlink" x="0px" y="0px"
	 width="960px" height="560px" viewBox="0 0 960 560" enable-background="new 0 0 960 560" xml:space="preserve">
<rect y="1" fill="#FFFFFF" width="960" height="560"/>
<path fill="#F15A24" d="M335.167,387.586h-17.07v-37.984c0-1.31-1.112-1.967-3.333-1.967h-6.84c0.689,0.69,1.034,1.519,1.034,2.484
	v37.467h-16.553V350.43c0-1.863-1.094-2.795-3.276-2.795h-5.69v39.951h-17.07v-49.059h51.039c6.552,0,11.148,0.863,13.794,2.587
	c2.643,1.726,3.966,4.693,3.966,8.901V387.586z"/>
<path fill="#F15A24" d="M381.655,370.612c0,5.313-2.414,9.798-7.242,13.455c-4.599,3.381-9.656,5.071-15.173,5.071
	c-5.518,0-10.519-1.69-15.001-5.071c-4.828-3.657-7.242-8.142-7.242-13.455v-5.383c0-4.207,1.301-7.157,3.904-8.849
	c2.603-1.69,7.258-2.536,13.966-2.536h9.718v-4.554c0-0.896-1.043-1.346-3.125-1.346h-20.67v-9.418h21.554
	c7.242,0,12.269,0.794,15.087,2.38c2.815,1.588,4.225,4.59,4.225,9.005V370.612z M364.584,372.061v-9.625h-7.132
	c-2.258,0-3.386,0.656-3.386,1.967v7.658c0,4.486,1.721,6.728,5.17,6.728c1.425,0,2.673-0.621,3.742-1.862
	C364.048,375.684,364.584,374.063,364.584,372.061z"/>
<path fill="#F15A24" d="M427.451,387.586h-17.07v-18.112c0-0.275-0.762-0.725-2.287-1.346l-6.162-2.484v21.942H384v-71.001h17.933
	v37.427c0,0.208,0.237,0.382,0.717,0.519l3.4,1.141l3.381-2.928c0.633-0.483,0.951-0.795,0.951-0.935v-13.281h17.07v14.386
	c0,0.484-0.231,0.897-0.689,1.242l-7.759,6.313l6.38,2.588c1.379,0.553,2.069,1.381,2.069,2.483V387.586z"/>
<path fill="#F15A24" d="M473.764,370.095c0,5.589-2.414,10.246-7.242,13.973c-4.482,3.381-9.542,5.071-15.173,5.071
	c-5.518,0-10.519-1.69-15.001-5.071c-4.828-3.587-7.242-8.073-7.242-13.455v-20.597c0-4.208,1.293-7.176,3.879-8.901
	c2.586-1.724,7.212-2.587,13.88-2.587h9.139c6.552,0,11.148,0.863,13.795,2.587c2.643,1.726,3.965,4.693,3.965,8.901v14.387h-27.588
	v5.899c0,5.658,1.694,8.486,5.083,8.486c3.621,0,5.435-3.001,5.435-9.004v-0.725h17.07V370.095z M456.694,356.536v-6.106
	c0-1.863-1.129-2.795-3.387-2.795h-3.745c-2.258,0-3.386,0.932-3.386,2.795v6.106H456.694z"/>
<path d="M544.769,387.586h-17.07V350.43c0-1.863-1.094-2.795-3.276-2.795h-6.207v39.951h-17.07v-49.059h26.037
	c6.552,0,11.121,0.863,13.707,2.587c2.587,1.726,3.88,4.693,3.88,8.901V387.586z"/>
<path d="M584.978,347.945h-13.449v21.839c0,2.347,1.034,4.485,3.104,6.417c1.492,1.519,4.54,3.622,9.139,6.313l-12.242,7.452
	c-7.474-3.854-12.475-7.467-15.001-10.841c-2.069-2.821-3.104-6.642-3.104-11.461v-19.72h-8.104v-9.418h8.104v-13.766h18.105v13.766
	h13.449V347.945z"/>
<path d="M631.671,370.095c0,5.589-2.414,10.246-7.242,13.973c-4.483,3.381-9.543,5.071-15.174,5.071
	c-5.518,0-10.518-1.69-15.001-5.071c-4.828-3.587-7.242-8.073-7.242-13.455v-20.597c0-4.208,1.294-7.176,3.88-8.901
	c2.586-1.724,7.212-2.587,13.881-2.587h9.139c6.552,0,11.148,0.863,13.794,2.587c2.643,1.726,3.966,4.693,3.966,8.901v14.387
	h-27.589v5.899c0,5.658,1.695,8.486,5.084,8.486c3.621,0,5.435-3.001,5.435-9.004v-0.725h17.07V370.095z M614.601,356.536v-6.106
	c0-1.863-1.129-2.795-3.387-2.795h-3.745c-2.258,0-3.387,0.932-3.387,2.795v6.106H614.601z"/>
<path d="M676.088,354.569h-17.07v-4.14c0-1.863-1.118-2.795-3.352-2.795h-4.407v39.951h-17.07v-49.059h24.14
	c6.552,0,11.148,0.863,13.794,2.587c2.644,1.726,3.966,4.693,3.966,8.901V354.569z"/>
<path d="M721.849,387.586h-17.07V350.43c0-1.863-1.094-2.795-3.276-2.795h-6.207v39.951h-17.07v-49.059h26.037
	c6.552,0,11.121,0.863,13.707,2.587c2.587,1.726,3.88,4.693,3.88,8.901V387.586z"/>
<g>
	<path fill-rule="evenodd" clip-rule="evenodd" d="M498.327,378.762c0,10.129,0.022,20.259-0.008,30.387
		c-0.02,6.456-3.724,10.193-10.094,10.286c-6.029,0.088-10.286-4.028-10.298-10.22c-0.038-20.48-0.027-40.961,0.035-61.442
		c0.018-5.854,4.378-9.875,10.362-9.82c6.074,0.058,10.025,4.007,10.035,10.089c0.017,10.24,0.005,20.48,0.005,30.721
		C498.353,378.762,498.341,378.762,498.327,378.762z"/>
	<path fill-rule="evenodd" clip-rule="evenodd" d="M487.931,336.897c-5.709-0.132-9.854-4.368-9.804-10.021
		c0.052-5.908,4.437-9.914,10.693-9.771c5.448,0.125,9.65,4.714,9.479,10.353C498.133,332.96,493.659,337.031,487.931,336.897z"/>
</g>
<g>
	<path fill="#F15A24" d="M540.652,265c12.58,0,24.139,1.942,33.288,5.185c0.038-0.39,0.06-0.785,0.06-1.185V143
		c0-6.627-5.373-12-12-12h-93.751c-1.173,12.791-24.714,23-53.596,23c-14.177,0-27.061-2.464-36.653-6.481V269
		c0,6.627,5.373,12,12,12h100.065C497.432,271.68,517.294,265,540.652,265z M540.632,161.387c5.466,0.106,9.501,4.295,9.382,9.738
		c-0.117,5.423-4.377,9.544-9.761,9.443c-5.894-0.11-9.776-4.217-9.608-10.163C530.801,164.897,534.813,161.274,540.632,161.387z
		 M478.859,160.388c5.269,0.121,9.33,4.558,9.165,10.01c-0.161,5.318-4.486,9.255-10.025,9.126c-5.52-0.127-9.527-4.225-9.479-9.689
		C468.57,164.123,472.81,160.25,478.859,160.388z M417.007,161.031c5.848-0.041,9.82,3.866,9.802,9.642
		c-0.017,5.564-4.13,9.453-9.985,9.44c-5.428-0.012-9.562-4.163-9.56-9.6C407.265,165.211,411.521,161.069,417.007,161.031z
		 M457.496,201.287c-8.934,0.173-17.875,0.162-26.809,0.002c-2.953-0.052-3.908,0.836-3.88,3.836
		c0.137,14.75,0.156,29.501,0.039,44.251c-0.067,8.425-7.184,12.979-14.671,9.569c-3.626-1.651-5.207-4.637-5.206-8.546
		c0.002-9.904,0-19.811,0.004-29.717c0.003-9.582-0.008-19.165,0.008-28.748c0.011-6.524,3.702-10.654,10.23-10.745
		c13.455-0.189,26.916-0.183,40.371-0.052c6.433,0.063,10.034,3.796,10.026,9.753C467.599,197.404,464.128,201.159,457.496,201.287z
		 M488.044,249.381c-0.02,6.242-3.602,9.856-9.76,9.946c-5.83,0.085-9.945-3.896-9.957-9.882
		c-0.037-19.802-0.026-39.604,0.034-59.407c0.017-5.661,4.233-9.547,10.019-9.495c5.874,0.055,9.694,3.874,9.703,9.754
		c0.017,9.901,0.005,19.702,0.005,29.702c-0.013,0-0.024,0-0.036,0C488.052,230,488.073,239.588,488.044,249.381z M489.613,187.624
		c1.337-3.761,5.364-6.304,9.994-6.283c12.916,0.059,25.832,0.096,38.747,0.204c7.517,0.063,11.538,3.957,11.593,11.465
		c0.068,9.366,0.017,18.99,0.017,27.99c-0.007,0-0.015,0-0.021,0c0,10,0.023,19.272-0.008,28.853
		c-0.021,6.216-4.045,10.485-9.825,10.453c-6.365-0.035-10.188-3.849-10.194-10.283c-0.015-14.857-0.07-29.701,0.053-44.557
		c0.024-2.942-0.847-3.862-3.837-3.814c-9.147,0.143-18.307,0.189-27.446-0.13C491.068,201.256,487.056,194.817,489.613,187.624z"/>
	<path d="M498.685,201.525c9.14,0.319,18.299,0.276,27.446,0.133c2.99-0.047,3.861,0.879,3.837,3.821
		c-0.123,14.855-0.067,29.713-0.053,44.57c0.006,6.435,3.829,10.275,10.194,10.311c5.78,0.032,9.804-4.292,9.825-10.507
		c0.031-9.581,0.008-18.853,0.008-28.853c0.007,0,0.015,0,0.021,0c0-9,0.052-18.624-0.017-27.99
		c-0.055-7.508-4.076-11.457-11.593-11.519c-12.915-0.108-25.831-0.119-38.747-0.177c-4.63-0.021-8.657,2.535-9.994,6.296
		C487.056,194.803,491.068,201.259,498.685,201.525z"/>
	<path d="M540.253,180.568c5.384,0.101,9.644-4.02,9.761-9.443c0.119-5.443-3.916-9.631-9.382-9.738
		c-5.818-0.113-9.831,3.51-9.987,9.018C530.477,176.351,534.359,180.458,540.253,180.568z"/>
	<path d="M457.582,181.138c-13.456-0.131-26.916-0.137-40.371,0.052c-6.528,0.091-10.219,4.221-10.23,10.745
		c-0.016,9.583-0.004,19.166-0.008,28.748c-0.004,9.906-0.002,19.813-0.004,29.717c0,3.909,1.58,6.895,5.206,8.546
		c7.488,3.409,14.604-1.145,14.671-9.569c0.117-14.75,0.099-29.502-0.039-44.251c-0.028-3,0.927-3.888,3.88-3.836
		c8.934,0.16,17.875,0.171,26.809-0.002c6.632-0.128,10.103-3.882,10.112-10.396C467.616,184.934,464.015,181.2,457.582,181.138z"/>
	<path d="M416.824,180.114c5.854,0.013,9.968-3.876,9.985-9.44c0.018-5.776-3.954-9.683-9.802-9.642
		c-5.486,0.038-9.742,4.18-9.743,9.483C407.262,175.951,411.396,180.102,416.824,180.114z"/>
	<path d="M488.083,190.298c-0.009-5.88-3.829-9.699-9.703-9.754c-5.785-0.053-10.002,3.833-10.019,9.495
		c-0.061,19.803-0.071,39.605-0.034,59.407c0.012,5.986,4.127,9.967,9.957,9.882c6.158-0.09,9.74-3.704,9.76-9.946
		c0.029-9.793,0.008-19.381,0.008-29.381c0.012,0,0.023,0,0.036,0C488.088,210,488.1,200.199,488.083,190.298z"/>
	<path d="M477.999,179.524c5.539,0.128,9.864-3.808,10.025-9.126c0.165-5.452-3.896-9.889-9.165-10.01
		c-6.05-0.138-10.289,3.735-10.339,9.447C468.472,175.3,472.479,179.397,477.999,179.524z"/>
	<path fill="#F7931E" d="M468.249,131H390c-6.627,0-12,5.373-12,12v4.519c9.592,4.018,22.476,6.481,36.653,6.481
		C443.535,154,467.076,143.791,468.249,131z"/>
	<path opacity="0.2" fill="#FFFFFF" d="M468.249,131H390c-6.627,0-12,5.373-12,12v4.519c9.592,4.018,22.476,6.481,36.653,6.481
		C443.535,154,467.076,143.791,468.249,131z"/>
	<path fill="#F7931E" d="M573.94,270.185c-9.149-3.243-20.708-5.185-33.288-5.185c-23.358,0-43.221,6.68-50.587,16H562
		C568.227,281,573.345,276.256,573.94,270.185z"/>
	<path opacity="0.2" fill="#FFFFFF" d="M573.94,270.185c-9.149-3.243-20.708-5.185-33.288-5.185c-23.358,0-43.221,6.68-50.587,16
		H562C568.227,281,573.345,276.256,573.94,270.185z"/>
</g>
<g>
	<path fill="#F15A24" d="M654.672,406.908l-4.474,3.779l-0.124-0.002l-4.6-3.791l4.587-3.809l0.137,0.006L654.672,406.908z"/>
	<path fill="#F15A24" d="M673.823,403.715c0,2-0.882,3.688-2.646,5.063c-1.682,1.272-3.529,1.909-5.545,1.909
		s-3.843-0.637-5.48-1.909c-1.764-1.351-2.646-3.038-2.646-5.063v-7.752c0-1.584,0.473-2.7,1.418-3.35
		c0.945-0.648,2.635-0.974,5.071-0.974h3.339c2.395,0,4.074,0.325,5.04,0.974c0.966,0.649,1.449,1.766,1.449,3.35v1.637h-6.237
		v-1.48c0-0.701-0.412-1.052-1.237-1.052h-1.368c-0.824,0-1.237,0.351-1.237,1.052v7.479c0,2.129,0.619,3.193,1.857,3.193
		c1.323,0,1.985-1.35,1.985-4.051v-0.935h6.237V403.715z"/>
	<path fill="#F15A24" d="M693.416,403.715c0,2.025-0.852,3.693-2.553,5.005c-1.7,1.312-3.559,1.968-5.574,1.968
		c-2.017,0-3.844-0.637-5.481-1.909c-1.765-1.351-2.646-3.038-2.646-5.063v-7.752c0-1.584,0.461-2.7,1.385-3.35
		c0.924-0.648,2.604-0.974,5.041-0.974h3.401c2.394,0,4.063,0.325,5.009,0.974c0.945,0.649,1.418,1.766,1.418,3.35V403.715z
		 M687.178,403.598v-7.479c0-0.701-0.42-1.052-1.26-1.052h-1.26c-0.84,0-1.26,0.351-1.26,1.052v7.479
		c0,2.129,0.63,3.193,1.891,3.193C686.549,406.791,687.178,405.727,687.178,403.598z"/>
	<path fill="#F15A24" d="M722.206,410.103h-6.237v-14.296c0-0.492-0.406-0.739-1.217-0.739h-2.5c0.252,0.26,0.379,0.571,0.379,0.935
		v14.101h-6.049v-13.983c0-0.701-0.399-1.052-1.197-1.052h-2.078v15.035h-6.237V391.64h18.647c2.395,0,4.074,0.325,5.041,0.974
		c0.965,0.649,1.448,1.766,1.448,3.35V410.103z"/>
</g>
</svg>
