<?xml version="1.0" encoding="utf-8"?>
<!-- Generator: Adobe Illustrator 16.0.0, SVG Export Plug-In . SVG Version: 6.00 Build 0)  -->
<!DOCTYPE svg PUBLIC "-//W3C//DTD SVG 1.1//EN" "http://www.w3.org/Graphics/SVG/1.1/DTD/svg11.dtd">
<svg version="1.1" id="Layer_1" xmlns="http://www.w3.org/2000/svg" xmlns:xlink="http://www.w3.org/1999/xlink" x="0px" y="0px"
	 width="437px" height="404.328px" viewBox="0 0 437 404.328" enable-background="new 0 0 437 404.328" xml:space="preserve">
<g>
	<g>
		<path fill-rule="evenodd" clip-rule="evenodd" fill="none" stroke="#000000" d="M249.359,5.888c0,0-1.069,2.176-1.399,2.451
			c-3.073,2.541-6.706,4.015-10.592,4.015c-5.695,0-10.832-3.584-14.489-8.642c-0.507-0.001-1.021,0.006-1.021,0.006
			s-0.479,1.253-0.685,1.488c-3.52,4.048-7.764,7.148-12.786,7.148c-4.154,0-7.749-1.678-10.955-4.549
			c-0.18-0.162-1.457-1.861-1.457-1.861l-0.528-0.018c0,0,0.639,1.72,0.639,2.157c0,19.662,11.994,35.6,26.792,35.6
			c14.796,0,26.792-15.938,26.792-35.6c0-0.437,0.013-2.196,0.013-2.196L249.359,5.888z"/>
		<path fill="none" stroke="#000000" d="M253.945,222.749c0,0.198,0.003,0.394,0.003,0.591c0,41.818-13.913,74.159-31.069,74.159
			c-14.352,0-26.428-22.147-29.996-54.371c-0.701-6.31-1.076-12.943-1.076-19.788c0-11.481,1.047-22.36,2.926-32.11
			c4.956-25.769,15.695-43.617,28.145-43.617c8.285,0,15.812,7.907,21.38,20.788c4.347-1.046,8.552-1.822,12.602-2.364
			c-3.125-8.372-6.805-15.105-10.461-21.313c-5.425-9.207-14.475-19.969-14.497-27.732c-0.025-8.105,6.956-14.177,10.178-17.864
			c7.27-8.334,9.852-14.302,9.852-23.768c0-17.305-12.73-31.367-28.54-31.667c0,0-0.374,3.345,0.774,5.295
			c1.363,2.317,4.492,3.318,4.492,3.318c7.918,2.833,13.664,11.326,13.664,21.359c0,8.096-3.739,15.188-9.343,19.115
			c0,0-4.042,2.7-5.807-0.136c-1.908-3.068,1.672-5.286,1.672-5.286c2.166-1.786,3.548-4.491,3.548-7.519
			c0-5.38-4.135-9.744-9.514-9.744c-5.382,0-9.516,4.363-9.516,9.744c0,3.027,1.379,5.732,3.542,7.519c0,0,3.583,2.218,1.676,5.286
			c-1.76,2.836-5.807,0.136-5.807,0.136c-5.603-3.928-9.343-11.02-9.343-19.115c0-10.034,5.747-18.527,13.664-21.359
			c0,0,3.131-1.001,4.491-3.318c1.15-1.95,0.774-5.295,0.774-5.295c-15.807,0.3-28.538,14.362-28.538,31.667
			c0,9.466,2.578,15.434,9.854,23.768c3.215,3.687,10.202,9.759,10.176,17.864c-0.022,7.763-9.076,18.525-14.497,27.732
			c-7.835,13.309-15.808,28.991-18.103,58.174c-0.42,5.366-0.648,11.185-0.653,17.534c0,11.157,0.897,21.858,2.549,31.765
			c5.285,31.729,18.266,53.786,33.99,58.463c1.879,0.558,3.792,0.853,5.738,0.853c1.943,0,3.855-0.295,5.734-0.853
			c20.163-5.995,35.814-41.581,36.511-87.028C261.678,223.199,257.92,222.875,253.945,222.749z"/>
		<ellipse fill-rule="evenodd" clip-rule="evenodd" cx="207.292" cy="20.714" rx="5.104" ry="2.065"/>
		<path fill-rule="evenodd" clip-rule="evenodd" d="M236.51,22.779c-2.815,0-5.102-0.923-5.102-2.065
			c0-1.141,2.286-2.065,5.102-2.065c2.823,0,5.107,0.924,5.107,2.065C241.617,21.856,239.333,22.779,236.51,22.779z"/>
		<path fill-rule="evenodd" clip-rule="evenodd" d="M221.903,34.046c-3.803,0-6.961-2.19-7.637-5.086
			c-0.09,0.377-0.138,0.764-0.138,1.162c0,3.448,3.478,6.246,7.775,6.246c4.294,0,7.779-2.798,7.779-6.246
			c0-0.397-0.053-0.785-0.142-1.162C228.861,31.856,225.704,34.046,221.903,34.046z"/>
		<path fill-rule="evenodd" clip-rule="evenodd" d="M213.632,29.464c-0.617,0.355-1.262,0.421-1.644,0.018
			c0.02,0.067,0.048,0.135,0.087,0.199c0.321,0.562,1.318,0.985,2.018,0.583c0.698-0.404,0.633-1.819,0.504-2.04
			c-0.036-0.063-0.078-0.123-0.132-0.177C214.628,28.582,214.249,29.107,213.632,29.464z"/>
		<path fill-rule="evenodd" clip-rule="evenodd" d="M230.176,29.464c0.615,0.355,1.263,0.421,1.646,0.018
			c-0.022,0.067-0.052,0.135-0.089,0.199c-0.324,0.562-1.32,0.985-2.021,0.583c-0.694-0.404-0.635-1.819-0.507-2.04
			c0.037-0.063,0.082-0.123,0.132-0.177C229.175,28.582,229.558,29.107,230.176,29.464z"/>
		<g>
			<g>
				<path fill="#0A62AF" d="M307.695,183.442c11.365,7.239,15.466,16.192,19.277,21.445c3.188,4.391,8.105,4.811,8.105,4.811
					c1.902-10.712-12.614-31.876-33.975-39.715c-10.734-3.94-26.296-6.485-45.219-3.946c-4.046,0.542-8.252,1.318-12.602,2.364
					c-8.71,2.097-17.976,5.263-27.699,9.826c-8.052,3.771-15.306,8.154-21.826,13.003c-1.876,9.75-2.928,20.628-2.928,32.11
					c0,6.845,0.378,13.479,1.076,19.788c9.421-7.766,20.604-14.253,33.077-17.468c9.791-2.521,19.405-3.182,27.987-2.911
					c3.978,0.126,7.727,0.45,11.182,0.882c12.104,1.514,20.442,4.35,21.367,4.516c22.399,4.01,45.573-7.181,49.28-17.411
					c0,0-4.47-2.095-9.423,0.12c-5.926,2.639-13.958,8.346-27.418,8.934c-25.63,1.117-34.529-16.297-25.359-21.608
					c3.905-2.259,6.15,3.467,6.15,3.467c1.648,2.796,4.65,5.1,8.438,6.115c6.718,1.8,13.292-0.927,14.757-6.384
					c1.465-5.461-2.864-11.108-9.591-12.91c-3.782-1.013-7.537-0.52-10.359,1.079c0,0-4.806,3.834-7.061-0.072
					C269.645,180.289,286.059,169.658,307.695,183.442z"/>
				<path fill="#0A62AF" d="M157.413,312.217c-0.194-6.247,0.189-20.434,6.377-33.848c3.59-7.771,9.906-17.27,18.388-26.173
					c-1.651-9.906-2.552-20.607-2.552-31.765c0.005-6.349,0.236-12.168,0.656-17.534c-15.275,15.336-25.143,33.497-30.928,51.409
					c-7.597,23.537-4.705,49.021-3.32,57.91h-10.069v5.728h177.833v-5.728H157.413z"/>
			</g>
		</g>
	</g>
	<g>
		<path fill="#0A62AF" d="M14.258,353.275l-0.48-1.948c0.12-0.399,0.24-0.805,0.359-1.214c0.12-0.409,0.23-0.814,0.331-1.214
			c0.12-0.28,0.325-0.495,0.615-0.645c0.29-0.15,0.675-0.226,1.155-0.226c0.18,0,0.455-0.039,0.825-0.119s0.635-0.12,0.795-0.12
			c0.18,0,0.42,0.14,0.72,0.42c0.3,0.279,0.51,0.439,0.63,0.479c0.14-0.1,0.315-0.271,0.525-0.51c0.21-0.24,0.465-0.56,0.765-0.959
			c0.26-0.32,0.51-0.58,0.75-0.78c0.24-0.199,0.5-0.339,0.78-0.419c0.324,0.16,0.607,0.29,0.85,0.39
			c0.142,0.08,0.238,0.17,0.289,0.27c0.051,0.101,0.076,0.24,0.076,0.42c0,0.1-0.05,0.314-0.15,0.645
			c-0.101,0.329-0.25,0.774-0.451,1.334c-0.221,0.6-0.391,1.099-0.511,1.499c-0.12,0.399-0.2,0.709-0.24,0.929
			c-0.301,0.46-0.536,0.875-0.706,1.244c-0.171,0.37-0.255,0.715-0.255,1.034c0,0.4,0.119,0.994,0.359,1.784
			c0.24,0.789,0.589,1.773,1.048,2.952c0.639,1.6,1.288,3.268,1.947,5.007c0.599,1.918,1.228,3.772,1.887,5.561
			c0.659,1.789,1.348,3.503,2.067,5.142c0.738,1.719,1.347,2.997,1.827,3.837c0.479,0.839,0.838,1.259,1.078,1.259
			c0.199,0,0.343-0.114,0.432-0.345c0.09-0.229,0.135-0.595,0.135-1.094c0-0.2,0.025-0.46,0.074-0.779
			c0.05-0.32,0.135-0.67,0.254-1.05c0.179-0.539,0.348-1.148,0.507-1.828c0.199-1.039,0.383-1.949,0.552-2.729
			s0.313-1.448,0.433-2.009c0.08-0.359,0.169-1.118,0.268-2.278c0.1-1.158,0.199-2.728,0.298-4.706c0-0.199,0.035-0.479,0.104-0.839
			c0.069-0.36,0.135-0.77,0.194-1.229c0.08-0.46,0.14-0.854,0.18-1.185c0.04-0.329,0.06-0.624,0.06-0.884
			c0-0.46-0.05-1.144-0.15-2.054c-0.1-0.909-0.149-1.594-0.149-2.054c0.299-1.259,0.579-2.488,0.839-3.687
			c0.219-1.039,0.429-1.904,0.629-2.594c0.199-0.689,0.37-1.214,0.51-1.573c0.319-0.72,0.709-1.344,1.169-1.874
			c0.459-0.529,0.969-0.964,1.529-1.304h0.24c0.2,0,0.334,0.04,0.405,0.12c0.07,0.08,0.105,0.209,0.105,0.39
			c-0.1,0.419-0.19,0.739-0.27,0.959c0.06,0.359,0.12,0.739,0.18,1.139c-0.06,0.5-0.13,0.92-0.209,1.26
			c-0.041,0.22-0.08,0.555-0.12,1.004c-0.04,0.45-0.06,0.994-0.06,1.634c0,0.24-0.03,0.755-0.09,1.544
			c-0.06,0.79-0.17,1.844-0.329,3.163c-0.12,1.878-0.265,3.747-0.434,5.605c-0.17,1.858-0.344,3.717-0.524,5.576
			c-0.16,2.238-0.389,4.281-0.688,6.13s-0.659,3.503-1.077,4.961c-0.101,0.88-0.285,1.859-0.554,2.938
			c-0.27,1.079-0.614,2.248-1.032,3.507l-0.928,1.499c-0.06,0.08-0.689,0.335-1.886,0.765s-1.866,0.645-2.005,0.645
			c-0.3,0-0.75-0.395-1.349-1.185c-0.6-0.789-1.309-1.993-2.128-3.612c-0.78-1.458-1.399-2.662-1.858-3.612
			c-0.46-0.948-0.75-1.663-0.869-2.143c-0.041-0.181-0.1-0.41-0.18-0.689c-0.08-0.28-0.17-0.6-0.27-0.96
			c-0.4-0.879-0.904-1.968-1.514-3.268c-0.61-1.299-1.314-2.837-2.113-4.616c-0.14-0.439-0.314-0.864-0.524-1.274
			c-0.21-0.409-0.465-0.844-0.765-1.304l-0.21,0.09c-0.14,0.4-0.28,0.899-0.42,1.499c-0.141,0.6-0.301,1.319-0.481,2.158
			c-0.201,0.54-0.411,1.02-0.631,1.439c-0.301,1.159-0.642,2.418-1.022,3.776c-0.381,1.359-0.792,2.818-1.232,4.377
			c-0.121,0.521-0.241,1.06-0.361,1.619c-0.121,0.56-0.261,1.139-0.421,1.738l-0.541,0.989c-0.08,0.6-0.17,1.189-0.271,1.769
			c-0.141,0.46-0.315,1.015-0.526,1.664c-0.211,0.649-0.466,1.424-0.767,2.323c-0.06,0.46-0.205,0.805-0.435,1.034
			c-0.23,0.229-0.544,0.354-0.944,0.375c-0.04,0.079-0.12,0.165-0.24,0.255c-0.12,0.09-0.32,0.175-0.6,0.255
			c-0.2,0.039-0.35-0.065-0.45-0.315s-0.15-0.614-0.15-1.094c0-0.28,0.05-0.72,0.15-1.319c0.101-0.6,0.25-1.358,0.45-2.278
			c0.22-1.039,0.395-1.854,0.525-2.443c0.13-0.589,0.215-0.964,0.255-1.124c0.08-0.479,0.17-1.108,0.271-1.889
			c0.1-0.779,0.21-1.679,0.33-2.697c0.04-0.26,0.105-0.585,0.195-0.975s0.205-0.844,0.345-1.364c0.1-0.399,0.3-1.483,0.6-3.252
			c0.3-1.769,0.69-4.231,1.17-7.39C13.277,359.531,13.778,356.413,14.258,353.275z"/>
		<path fill="#0A62AF" d="M40.272,376.209L43,374.41c0.1-0.1,0.22-0.235,0.36-0.405c0.14-0.169,0.3-0.414,0.479-0.734
			c0.14-0.259,0.325-0.479,0.555-0.659c0.229-0.18,0.495-0.34,0.794-0.479c0.16-0.2,0.39-0.45,0.689-0.75s0.679-0.648,1.139-1.049
			c0.22-0.12,0.5-0.295,0.839-0.524s0.709-0.534,1.109-0.914c1.818-1.719,3.412-3.008,4.781-3.867
			c1.369-0.859,2.523-1.289,3.462-1.289c0.52,0,0.904,0.109,1.154,0.329c0.25,0.221,0.375,0.53,0.375,0.93
			c0,0.42-0.075,0.79-0.225,1.109s-0.385,0.59-0.705,0.81c-0.5,0.359-1.04,0.759-1.619,1.198c-0.32,0.42-0.71,0.865-1.169,1.334
			c-0.46,0.47-1,0.935-1.619,1.395c-0.2,0.26-0.37,0.49-0.51,0.689c-0.1,0.101-0.29,0.28-0.569,0.539
			c-0.28,0.261-0.65,0.561-1.109,0.899c-0.2,0.44-0.635,1.01-1.304,1.709c-0.67,0.7-1.564,1.539-2.683,2.519
			c-0.14,0.14-0.39,0.46-0.75,0.959c-0.36,0.5-0.83,1.159-1.409,1.979l0.21,0.27c0.439-0.14,0.899-0.379,1.379-0.72
			c0.48-0.339,1.009-0.789,1.589-1.349c0.679-0.619,1.234-1.124,1.664-1.514c0.429-0.39,0.734-0.645,0.914-0.765
			c0.14-0.079,0.28-0.159,0.42-0.239c0.14-0.08,0.3-0.181,0.479-0.3c0.919-1.1,1.778-1.914,2.578-2.443
			c0.799-0.529,1.539-0.795,2.218-0.795c0.42,0,0.739,0.165,0.959,0.495c0.22,0.329,0.349,0.824,0.39,1.483
			c-0.041,1-0.06,1.959-0.06,2.878c-0.02,0.64,0.155,1.214,0.524,1.724s0.854,0.765,1.454,0.765c0.18,0,0.354-0.05,0.524-0.149
			c0.17-0.101,0.345-0.229,0.525-0.39c0.14-0.181,0.274-0.35,0.405-0.51c0.129-0.16,0.265-0.319,0.404-0.479
			c0.08-0.04,0.195-0.11,0.345-0.21c0.15-0.101,0.295-0.22,0.435-0.36c0.279,0.6,0.514,1.124,0.704,1.574
			c0.19,0.449,0.334,0.845,0.435,1.184c-0.46,0.42-0.915,0.854-1.364,1.305c-0.45,0.449-0.924,0.874-1.424,1.273
			c-0.6,0.46-1.179,0.805-1.739,1.034c-0.56,0.23-1.12,0.345-1.679,0.345c-1.299,0-2.298-0.369-2.998-1.108
			c-0.7-0.739-1.109-1.859-1.229-3.357c0-0.181-0.025-0.365-0.075-0.555c-0.05-0.19-0.155-0.385-0.315-0.585
			c-0.1,0.101-0.209,0.205-0.33,0.314c-0.12,0.11-0.26,0.255-0.419,0.435c-0.26,0.2-0.585,0.45-0.975,0.75s-0.844,0.659-1.364,1.079
			c-0.7,0.72-1.289,1.31-1.769,1.769c-0.48,0.46-0.82,0.79-1.02,0.989c-0.4,0.34-0.865,0.68-1.394,1.02
			c-0.53,0.34-1.124,0.689-1.784,1.049c-0.419,0.221-0.779,0.396-1.079,0.524c-0.3,0.13-0.52,0.195-0.66,0.195
			c-0.959,0-1.668-0.235-2.128-0.704c-0.46-0.47-0.69-1.194-0.69-2.174c0-0.539,0.115-1.054,0.345-1.544
			c0.23-0.489,0.575-0.964,1.035-1.424c0.04-0.26,0.06-0.47,0.06-0.63c0-0.1-0.025-0.204-0.075-0.314
			c-0.05-0.109-0.115-0.234-0.195-0.375c-0.12-0.279-0.255-0.594-0.405-0.944c-0.15-0.349-0.315-0.724-0.495-1.124
			c0.08-0.079,0.195-0.234,0.345-0.465C39.897,376.833,40.073,376.549,40.272,376.209z"/>
		<path fill="#0A62AF" d="M62.366,377.527c0.08-0.06,0.145-0.13,0.195-0.21c0.05-0.079,0.075-0.18,0.075-0.3
			c0.34-0.279,0.725-0.664,1.154-1.153c0.43-0.49,0.915-1.064,1.454-1.724c0.439-0.6,0.894-1.199,1.364-1.799
			c0.469-0.6,0.974-1.199,1.514-1.799c0.439-0.6,0.875-1.224,1.304-1.874c0.43-0.648,0.884-1.283,1.364-1.903
			c0.799-0.379,1.418-0.649,1.858-0.81c0.439-0.159,0.739-0.239,0.899-0.239c0.3,0,0.529,0.095,0.689,0.284
			c0.16,0.19,0.24,0.465,0.24,0.824c0,0.12-0.03,0.29-0.09,0.51c-0.06,0.221-0.13,0.46-0.21,0.72c-0.14,0.4-0.3,0.81-0.479,1.229
			c-0.16,0.699-0.35,1.398-0.57,2.098c-0.22,0.7-0.43,1.39-0.629,2.068c-0.2,0.86-0.355,1.649-0.465,2.369
			c-0.11,0.719-0.165,1.379-0.165,1.979c0,1.119,0.055,1.948,0.165,2.487c0.11,0.54,0.265,0.78,0.465,0.72
			c0.2-0.12,0.45-0.265,0.75-0.435s0.649-0.364,1.049-0.585c0.359-0.379,0.764-0.849,1.214-1.408s0.994-1.219,1.634-1.979
			c0.36-0.56,0.729-1.109,1.109-1.649c0.14-0.159,0.304-0.349,0.495-0.569c0.189-0.22,0.364-0.439,0.524-0.659
			c0.379-0.96,0.804-1.674,1.274-2.144s0.994-0.704,1.574-0.704c0.519,0,0.934,0.064,1.244,0.194c0.31,0.13,0.525,0.325,0.645,0.585
			c0.06,0.14,0.11,0.38,0.15,0.719c0.04,0.341,0.06,0.79,0.06,1.35c0,0.22,0.045,0.539,0.135,0.959
			c0.09,0.42,0.135,0.729,0.135,0.93c0,0.739,0.129,1.294,0.39,1.663c0.259,0.37,0.659,0.555,1.199,0.555
			c0.16,0,0.349-0.029,0.569-0.09c0.22-0.06,0.439-0.13,0.66-0.21l1.199,2.758c-1.199,0.72-2.184,1.265-2.953,1.634
			c-0.77,0.37-1.344,0.555-1.724,0.555c-1,0-1.819-0.259-2.458-0.779c-0.64-0.52-1.109-1.289-1.409-2.309
			c-0.04-0.239-0.125-0.479-0.255-0.719c-0.13-0.24-0.295-0.479-0.495-0.72c-0.18,0.2-0.385,0.439-0.614,0.72
			c-0.23,0.28-0.475,0.56-0.734,0.839c-0.54,0.66-1.08,1.305-1.619,1.934c-0.54,0.63-1.089,1.255-1.648,1.874
			c-0.7,0.819-1.404,1.414-2.114,1.783c-0.709,0.37-1.374,0.555-1.993,0.555c-0.919,0-1.659-0.274-2.219-0.824
			s-0.919-1.364-1.079-2.443c-0.18-1.039-0.3-1.848-0.359-2.428c-0.06-0.58-0.07-0.93-0.03-1.05
			c-0.04-0.579-0.095-1.019-0.165-1.318s-0.175-0.45-0.314-0.45l-0.18,0.09l-1.708,1.769c-0.06,0.141-0.16,0.315-0.3,0.525
			c-0.14,0.21-0.33,0.464-0.569,0.764c-0.08-0.3-0.22-0.669-0.42-1.108C62.945,378.737,62.686,378.188,62.366,377.527z"/>
		<path fill="#0A62AF" d="M87.307,377.527c0.38-0.379,0.955-0.924,1.724-1.634c0.769-0.709,1.743-1.583,2.923-2.623
			c0.12-0.1,0.419-0.43,0.899-0.989c0.479-0.559,1.169-1.358,2.068-2.397c0.419-0.42,0.929-0.96,1.529-1.619
			s1.279-1.439,2.039-2.338c0.499-0.68,0.994-1.199,1.484-1.56c0.489-0.359,0.964-0.539,1.424-0.539c0.58,0,1.004,0.145,1.274,0.435
			c0.27,0.29,0.405,0.704,0.405,1.244c0,0.34-0.05,0.839-0.15,1.499c-0.1,0.659-0.15,1.159-0.15,1.498
			c0,0.561-0.085,1.54-0.255,2.938s-0.435,3.218-0.794,5.456c-0.02,0.14-0.065,0.374-0.135,0.704
			c-0.07,0.33-0.175,0.765-0.315,1.304c-0.12,0.4-0.2,0.77-0.24,1.109s-0.06,0.63-0.06,0.869c0.02,0.16,0.03,0.29,0.03,0.39
			c0.979-0.719,1.833-1.389,2.563-2.008s1.334-1.199,1.813-1.739l1.199,2.758c-0.2,0.101-1.599,1.34-4.197,3.718
			c-0.12,0.359-0.385,0.739-0.794,1.139c-0.41,0.4-0.964,0.81-1.664,1.229c-0.2,0.34-0.44,0.784-0.72,1.334s-0.6,1.194-0.959,1.934
			c-0.2,0.539-0.375,1.054-0.525,1.544c-0.15,0.489-0.275,0.924-0.375,1.304c-0.2,0.799-0.55,1.749-1.049,2.848
			c-0.5,1.1-1.109,2.378-1.829,3.838c-0.88,1.738-1.664,3.037-2.353,3.896s-1.265,1.279-1.724,1.259
			c-0.479-0.04-0.864-0.074-1.154-0.104c-0.29-0.03-0.475-0.065-0.555-0.104c-0.18-0.12-0.305-0.325-0.375-0.615
			s-0.105-0.664-0.105-1.124c0-0.3,0.05-0.765,0.15-1.394c0.1-0.63,0.25-1.404,0.45-2.323c0.139-0.64,0.324-1.265,0.554-1.874
			c0.229-0.609,0.495-1.214,0.794-1.813c0.26-0.58,0.529-1.14,0.81-1.679c0.28-0.54,0.569-1.119,0.869-1.738
			c0.66-0.8,1.304-1.669,1.934-2.608c0.63-0.939,1.264-1.959,1.904-3.058c0.12-0.42,0.245-0.954,0.375-1.604
			c0.13-0.648,0.265-1.424,0.405-2.323c0.18-0.959,0.33-1.838,0.45-2.638c0.1-0.679,0.185-1.219,0.255-1.619
			c0.07-0.399,0.095-0.669,0.075-0.809l-0.18-1.56l0.51-1.618c-0.08-0.24-0.185-0.425-0.315-0.555
			c-0.13-0.13-0.275-0.195-0.435-0.195c-0.38,0-0.74,0.101-1.079,0.3c-0.34,0.2-0.66,0.49-0.959,0.87
			c-0.34,0.46-0.76,0.943-1.259,1.453s-1.089,1.075-1.769,1.694c-0.839,0.76-1.529,1.384-2.068,1.873
			c-0.54,0.49-0.929,0.865-1.169,1.124c-0.101-0.259-0.225-0.569-0.375-0.929c-0.15-0.36-0.304-0.779-0.464-1.259
			c-0.04-0.12-0.09-0.23-0.15-0.33C87.457,377.668,87.387,377.588,87.307,377.527z M106.343,349.828c0.459,0,0.794,0.101,1.004,0.3
			c0.21,0.2,0.314,0.49,0.314,0.869c0,0.4-0.08,0.88-0.24,1.439c-0.16,0.56-0.39,1.18-0.689,1.858c-0.24,0.56-0.46,1.09-0.659,1.589
			c-0.14,0.34-0.605,0.774-1.394,1.304c-0.79,0.53-1.384,0.795-1.784,0.795c-0.54,0-0.995-0.035-1.364-0.105
			c-0.37-0.069-0.655-0.175-0.854-0.314c-0.18-0.14-0.325-0.395-0.435-0.765c-0.11-0.369-0.165-0.844-0.165-1.424
			c0-0.939,0.799-2.099,2.398-3.478C104.074,350.518,105.363,349.828,106.343,349.828z"/>
		<path fill="#0A62AF" d="M106.313,376.209l2.728-1.799c0.1-0.1,0.22-0.235,0.36-0.405c0.14-0.169,0.3-0.414,0.479-0.734
			c0.14-0.259,0.325-0.479,0.555-0.659c0.229-0.18,0.495-0.34,0.794-0.479c0.16-0.2,0.39-0.45,0.689-0.75s0.679-0.648,1.139-1.049
			c0.22-0.12,0.5-0.295,0.839-0.524s0.709-0.534,1.109-0.914c1.818-1.719,3.412-3.008,4.781-3.867
			c1.369-0.859,2.523-1.289,3.462-1.289c0.52,0,0.904,0.109,1.154,0.329c0.25,0.221,0.375,0.53,0.375,0.93
			c0,0.42-0.075,0.79-0.225,1.109s-0.385,0.59-0.705,0.81c-0.5,0.359-1.04,0.759-1.619,1.198c-0.32,0.42-0.71,0.865-1.169,1.334
			c-0.46,0.47-1,0.935-1.619,1.395c-0.2,0.26-0.37,0.49-0.51,0.689c-0.1,0.101-0.29,0.28-0.569,0.539
			c-0.28,0.261-0.65,0.561-1.109,0.899c-0.2,0.44-0.635,1.01-1.304,1.709c-0.67,0.7-1.564,1.539-2.683,2.519
			c-0.14,0.14-0.39,0.46-0.75,0.959c-0.36,0.5-0.83,1.159-1.409,1.979l0.21,0.27c0.439-0.14,0.899-0.379,1.379-0.72
			c0.48-0.339,1.009-0.789,1.589-1.349c0.679-0.619,1.234-1.124,1.664-1.514c0.429-0.39,0.734-0.645,0.914-0.765
			c0.14-0.079,0.28-0.159,0.42-0.239c0.14-0.08,0.3-0.181,0.479-0.3c0.919-1.1,1.778-1.914,2.578-2.443
			c0.799-0.529,1.539-0.795,2.218-0.795c0.42,0,0.739,0.165,0.959,0.495c0.22,0.329,0.349,0.824,0.39,1.483
			c-0.041,1-0.06,1.959-0.06,2.878c-0.02,0.64,0.155,1.214,0.524,1.724s0.854,0.765,1.454,0.765c0.18,0,0.354-0.05,0.524-0.149
			c0.17-0.101,0.345-0.229,0.525-0.39c0.14-0.181,0.274-0.35,0.405-0.51c0.129-0.16,0.265-0.319,0.404-0.479
			c0.08-0.04,0.195-0.11,0.345-0.21c0.15-0.101,0.295-0.22,0.435-0.36c0.279,0.6,0.514,1.124,0.704,1.574
			c0.19,0.449,0.334,0.845,0.435,1.184c-0.46,0.42-0.915,0.854-1.364,1.305c-0.45,0.449-0.924,0.874-1.424,1.273
			c-0.6,0.46-1.179,0.805-1.739,1.034c-0.56,0.23-1.12,0.345-1.679,0.345c-1.299,0-2.298-0.369-2.998-1.108
			c-0.7-0.739-1.109-1.859-1.229-3.357c0-0.181-0.025-0.365-0.075-0.555c-0.05-0.19-0.155-0.385-0.315-0.585
			c-0.1,0.101-0.209,0.205-0.33,0.314c-0.12,0.11-0.26,0.255-0.419,0.435c-0.26,0.2-0.585,0.45-0.975,0.75s-0.844,0.659-1.364,1.079
			c-0.7,0.72-1.289,1.31-1.769,1.769c-0.48,0.46-0.82,0.79-1.02,0.989c-0.4,0.34-0.865,0.68-1.394,1.02
			c-0.53,0.34-1.124,0.689-1.784,1.049c-0.419,0.221-0.779,0.396-1.079,0.524c-0.3,0.13-0.52,0.195-0.66,0.195
			c-0.959,0-1.668-0.235-2.128-0.704c-0.46-0.47-0.69-1.194-0.69-2.174c0-0.539,0.115-1.054,0.345-1.544
			c0.23-0.489,0.575-0.964,1.035-1.424c0.04-0.26,0.06-0.47,0.06-0.63c0-0.1-0.025-0.204-0.075-0.314
			c-0.05-0.109-0.115-0.234-0.195-0.375c-0.12-0.279-0.255-0.594-0.405-0.944c-0.15-0.349-0.315-0.724-0.495-1.124
			c0.08-0.079,0.195-0.234,0.345-0.465C105.938,376.833,106.113,376.549,106.313,376.209z"/>
		<path fill="#0A62AF" d="M128.406,377.527c0.08-0.079,0.275-0.229,0.585-0.449c0.311-0.22,0.716-0.479,1.216-0.779
			c0.32-0.18,0.696-0.505,1.125-0.975c0.43-0.47,0.916-1.094,1.457-1.874c0.46-0.619,0.865-1.208,1.215-1.769
			c0.351-0.559,0.636-1.068,0.856-1.528c0.74-1.559,1.476-2.708,2.206-3.447s1.486-1.109,2.267-1.109c0.28,0,0.495,0.07,0.645,0.21
			s0.225,0.359,0.225,0.659c0,0.56-0.05,1.435-0.15,2.623c-0.1,1.189-0.15,2.104-0.15,2.743c0,0.28,0.02,0.699,0.06,1.259
			s0.09,1.27,0.15,2.129c0.08,0.919,0.15,1.634,0.21,2.143c0.06,0.51,0.12,0.805,0.18,0.885l0.3,0.24
			c0.42,0,1.639-2.249,3.657-6.745c2.019-4.497,3.657-6.745,4.917-6.745c0.519,0,0.893,0.17,1.122,0.51
			c0.23,0.34,0.345,0.839,0.345,1.499c0,0.26-0.06,0.489-0.18,0.689c-0.12,0.199-0.29,0.37-0.509,0.509
			c-0.08,0.061-0.145,0.171-0.195,0.33c-0.05,0.16-0.075,0.37-0.075,0.63c-0.14,0.72-0.29,1.459-0.449,2.218
			c0.04,0.181,0.089,0.341,0.149,0.48s0.12,0.279,0.18,0.419c0-0.14-0.045,0.271-0.135,1.229s-0.205,2.458-0.344,4.496
			c-0.02,0.12-0.025,0.271-0.015,0.45c0.01,0.18,0.045,0.39,0.105,0.63c0.08,0.26,0.249,0.529,0.509,0.809
			c0.399,0,1.003-0.614,1.811-1.844c0.808-1.229,1.821-3.072,3.038-5.53c0.08-0.42,0.194-0.879,0.344-1.379s0.354-1.029,0.614-1.589
			c0.16-0.46,0.354-0.924,0.583-1.395c0.229-0.469,0.444-0.934,0.644-1.394l-0.24-0.899c0.08-0.379,0.16-0.765,0.239-1.154
			s0.17-0.765,0.27-1.124c0.14-0.499,0.339-0.874,0.599-1.124c0.259-0.25,0.559-0.375,0.898-0.375c0.339,0,0.588,0.086,0.748,0.255
			c0.16,0.17,0.24,0.405,0.24,0.705c0,1.019-0.1,2.078-0.299,3.177c-0.2,1.1-0.489,2.239-0.869,3.418
			c-0.419,1.339-0.893,2.578-1.422,3.717c-0.529,1.14-1.123,2.219-1.782,3.238c-0.5,1.299-1.258,2.758-2.275,4.376
			c-0.659,1.02-1.183,1.805-1.572,2.354c-0.389,0.55-0.624,0.875-0.703,0.975c-0.54,0.64-1.088,1.124-1.647,1.454
			c-0.559,0.329-1.127,0.494-1.707,0.494c-0.74,0-1.304-0.579-1.694-1.738s-0.584-2.897-0.584-5.217c0-0.239,0.05-0.529,0.15-0.869
			c0.1-0.34,0.15-0.6,0.15-0.779l-0.15-0.24c-0.1,0-0.255,0.141-0.465,0.42c-0.209,0.28-0.475,0.75-0.794,1.409
			c-0.38,0.7-0.809,1.459-1.289,2.278c-0.021,0.2-0.065,0.43-0.135,0.689c-0.07,0.26-0.185,0.529-0.345,0.81l-0.989,1.889
			c-0.16,0.359-0.335,0.715-0.524,1.063c-0.19,0.351-0.365,0.705-0.525,1.064c-0.24,0.28-0.524,0.489-0.854,0.63
			c-0.33,0.14-0.705,0.21-1.125,0.21c-0.12,0-0.235-0.006-0.346-0.016c-0.11-0.01-0.245-0.055-0.405-0.135l-0.511-0.539
			c-0.16-0.16-0.4-1.215-0.721-3.163s-0.791-4.801-1.412-8.559c-0.2,0.12-0.38,0.25-0.541,0.39c-0.16,0.141-0.31,0.29-0.45,0.45
			c-0.18,0.199-0.405,0.449-0.676,0.749c-0.27,0.3-0.576,0.649-0.916,1.05c-0.261,0.299-0.701,0.654-1.322,1.063
			c-0.621,0.41-1.061,0.785-1.321,1.124c-0.14-0.399-0.31-0.824-0.51-1.273C128.896,378.562,128.666,378.067,128.406,377.527z"/>
		<path fill="#0A62AF" d="M159.673,376.209l2.728-1.799c0.1-0.1,0.22-0.235,0.36-0.405c0.14-0.169,0.3-0.414,0.479-0.734
			c0.14-0.259,0.325-0.479,0.555-0.659c0.229-0.18,0.495-0.34,0.794-0.479c0.16-0.2,0.39-0.45,0.689-0.75s0.679-0.648,1.139-1.049
			c0.22-0.12,0.5-0.295,0.839-0.524s0.709-0.534,1.109-0.914c1.818-1.719,3.412-3.008,4.781-3.867
			c1.369-0.859,2.523-1.289,3.462-1.289c0.52,0,0.904,0.109,1.154,0.329c0.25,0.221,0.375,0.53,0.375,0.93
			c0,0.42-0.075,0.79-0.225,1.109s-0.385,0.59-0.705,0.81c-0.5,0.359-1.04,0.759-1.619,1.198c-0.32,0.42-0.71,0.865-1.169,1.334
			c-0.46,0.47-1,0.935-1.619,1.395c-0.2,0.26-0.37,0.49-0.51,0.689c-0.1,0.101-0.29,0.28-0.569,0.539
			c-0.28,0.261-0.65,0.561-1.109,0.899c-0.2,0.44-0.635,1.01-1.304,1.709c-0.67,0.7-1.564,1.539-2.683,2.519
			c-0.14,0.14-0.39,0.46-0.75,0.959c-0.36,0.5-0.83,1.159-1.409,1.979l0.21,0.27c0.439-0.14,0.899-0.379,1.379-0.72
			c0.48-0.339,1.009-0.789,1.589-1.349c0.679-0.619,1.234-1.124,1.664-1.514c0.429-0.39,0.734-0.645,0.914-0.765
			c0.14-0.079,0.28-0.159,0.42-0.239c0.14-0.08,0.3-0.181,0.479-0.3c0.919-1.1,1.778-1.914,2.578-2.443
			c0.799-0.529,1.539-0.795,2.218-0.795c0.42,0,0.739,0.165,0.959,0.495c0.22,0.329,0.349,0.824,0.39,1.483
			c-0.041,1-0.06,1.959-0.06,2.878c-0.02,0.64,0.155,1.214,0.524,1.724s0.854,0.765,1.454,0.765c0.18,0,0.354-0.05,0.524-0.149
			c0.17-0.101,0.345-0.229,0.525-0.39c0.14-0.181,0.274-0.35,0.405-0.51c0.129-0.16,0.265-0.319,0.404-0.479
			c0.08-0.04,0.195-0.11,0.345-0.21c0.15-0.101,0.295-0.22,0.435-0.36c0.279,0.6,0.514,1.124,0.704,1.574
			c0.19,0.449,0.334,0.845,0.435,1.184c-0.46,0.42-0.915,0.854-1.364,1.305c-0.45,0.449-0.924,0.874-1.424,1.273
			c-0.6,0.46-1.179,0.805-1.739,1.034c-0.56,0.23-1.12,0.345-1.679,0.345c-1.299,0-2.298-0.369-2.998-1.108
			c-0.7-0.739-1.109-1.859-1.229-3.357c0-0.181-0.025-0.365-0.075-0.555c-0.05-0.19-0.155-0.385-0.315-0.585
			c-0.1,0.101-0.209,0.205-0.33,0.314c-0.12,0.11-0.26,0.255-0.419,0.435c-0.26,0.2-0.585,0.45-0.975,0.75s-0.844,0.659-1.364,1.079
			c-0.7,0.72-1.289,1.31-1.769,1.769c-0.48,0.46-0.82,0.79-1.02,0.989c-0.4,0.34-0.865,0.68-1.394,1.02
			c-0.53,0.34-1.124,0.689-1.784,1.049c-0.419,0.221-0.779,0.396-1.079,0.524c-0.3,0.13-0.52,0.195-0.66,0.195
			c-0.959,0-1.668-0.235-2.128-0.704c-0.46-0.47-0.69-1.194-0.69-2.174c0-0.539,0.115-1.054,0.345-1.544
			c0.23-0.489,0.575-0.964,1.035-1.424c0.04-0.26,0.06-0.47,0.06-0.63c0-0.1-0.025-0.204-0.075-0.314
			c-0.05-0.109-0.115-0.234-0.195-0.375c-0.12-0.279-0.255-0.594-0.405-0.944c-0.15-0.349-0.315-0.724-0.495-1.124
			c0.08-0.079,0.195-0.234,0.345-0.465C159.298,376.833,159.474,376.549,159.673,376.209z"/>
		<path fill="#0A62AF" d="M181.767,377.527c0.08-0.14,0.185-0.294,0.314-0.465c0.13-0.169,0.285-0.374,0.465-0.614
			c0.2-0.159,0.459-0.39,0.779-0.689s0.679-0.649,1.079-1.049c0.36-0.399,0.799-0.895,1.319-1.484
			c0.52-0.589,1.149-1.304,1.889-2.144c0.319-0.339,0.719-0.773,1.199-1.304c0.48-0.529,1.049-1.164,1.709-1.903
			c0.559-0.66,1.159-1.149,1.799-1.469c0.639-0.319,1.319-0.479,2.038-0.479c0.72,0,1.249,0.225,1.589,0.674
			c0.34,0.45,0.51,1.104,0.51,1.964c0,0.46-0.17,1.339-0.51,2.638c-0.34,1.3-0.869,3.019-1.589,5.156
			c-0.18,0.4-0.35,0.779-0.509,1.14c-0.12,0.26-0.2,0.489-0.24,0.689c-0.04,0.199-0.06,0.35-0.06,0.449c0,0.12,0.07,0.27,0.209,0.45
			c0.1-0.061,0.195-0.14,0.285-0.24c0.09-0.1,0.195-0.22,0.314-0.359c0.16-0.3,0.405-0.615,0.735-0.944
			c0.33-0.33,0.724-0.694,1.184-1.095c0.18-0.34,0.415-0.675,0.704-1.004c0.29-0.33,0.615-0.635,0.975-0.914
			c0.08-0.08,0.185-0.21,0.314-0.39c0.13-0.181,0.285-0.37,0.465-0.57c0.259-0.259,0.569-0.529,0.929-0.81
			c0.36-0.279,0.779-0.569,1.259-0.869c0.54-0.279,1.024-0.499,1.454-0.659s0.804-0.24,1.125-0.24c0.619,0,1.169,0.15,1.648,0.45
			c0.48,0.3,0.889,0.77,1.229,1.409c0.4,1.239,0.78,2.388,1.139,3.447c0.22,0.619,0.465,1.079,0.735,1.379
			c0.27,0.3,0.574,0.449,0.914,0.449c0.26,0,0.495-0.05,0.705-0.149s0.405-0.25,0.584-0.45l1.199,2.758
			c-0.34,0.28-0.689,0.57-1.049,0.87s-0.709,0.589-1.049,0.869c-0.46,0.42-0.89,0.715-1.289,0.884
			c-0.4,0.171-0.799,0.255-1.199,0.255c-0.46,0-0.899-0.1-1.319-0.3c-0.419-0.199-0.779-0.499-1.079-0.899
			c-0.16-0.159-0.36-0.454-0.6-0.884s-0.52-0.964-0.839-1.604c-0.26-0.26-0.555-0.604-0.884-1.034s-0.715-0.935-1.154-1.515
			l-0.27-0.09c-0.379,0.12-0.754,0.3-1.124,0.54c-0.369,0.239-0.763,0.55-1.182,0.929c-0.898,0.8-1.547,1.3-1.947,1.499
			c-0.399,0.2-0.668,0.431-0.808,0.689c-0.28,0.479-0.759,1.1-1.438,1.859c-0.679,0.759-1.527,1.658-2.544,2.697
			c-0.26,0.26-0.519,0.515-0.779,0.765c-0.259,0.25-0.519,0.495-0.778,0.734c-0.259,0.22-0.554,0.375-0.883,0.465
			c-0.33,0.09-0.694,0.135-1.093,0.135c-0.8,0-1.234-0.275-1.304-0.824c-0.07-0.55-0.135-1.104-0.195-1.664
			c0.3-0.839,0.64-1.889,1.019-3.147s0.816-2.728,1.311-4.406c0-0.101,0.034-0.235,0.104-0.405s0.153-0.395,0.252-0.675
			c0.099-0.259,0.168-0.484,0.208-0.674c0.039-0.19,0.059-0.354,0.059-0.495c0-0.14-0.05-0.249-0.15-0.329s-0.26-0.12-0.479-0.12
			c-0.2,0-0.464,0.12-0.794,0.359c-0.33,0.24-0.725,0.62-1.184,1.14c-0.56,0.6-1.009,1.069-1.349,1.408
			c-0.34,0.341-0.569,0.54-0.689,0.6c-0.2,0.141-0.435,0.341-0.704,0.6c-0.27,0.26-0.575,0.55-0.915,0.869
			c-0.04,0.081-0.1,0.2-0.18,0.36c-0.08,0.16-0.21,0.34-0.39,0.539c-0.08-0.3-0.22-0.669-0.42-1.108
			C182.346,378.737,182.086,378.188,181.767,377.527z"/>
		<path fill="#0A62AF" d="M229.7,372.371c0.56,0.141,1.029,0.29,1.409,0.45c0.679-0.12,1.368-0.25,2.068-0.39h5.576
			c0.539,0,0.929,0.14,1.169,0.42c0.24,0.279,0.359,0.699,0.359,1.259c0,0.8-0.165,1.398-0.494,1.799
			c-0.33,0.399-0.805,0.6-1.424,0.6c-0.2,0-0.51-0.03-0.93-0.091c-0.42-0.06-0.729-0.09-0.93-0.09h-1.708
			c-0.72,0.141-1.439,0.271-2.158,0.39c-1.739-0.279-2.709-0.419-2.908-0.419c-0.26,0-0.604,0.035-1.034,0.104
			c-0.43,0.07-0.774,0.105-1.034,0.105c-0.36,0-0.649-0.075-0.87-0.226c-0.219-0.149-0.329-0.364-0.329-0.645
			c0-0.119,0.101-0.294,0.3-0.524c0.199-0.229,0.489-0.514,0.869-0.854c0.08-0.159,0.185-0.364,0.314-0.614s0.285-0.544,0.465-0.885
			c0.14-0.02,0.315-0.064,0.524-0.135C229.146,372.557,229.4,372.472,229.7,372.371z"/>
		<path fill="#0A62AF" d="M282.761,377.527l1.14,2.758c-0.221,0.2-0.485,0.415-0.795,0.645c-0.31,0.23-0.675,0.476-1.094,0.734
			c-0.42,0.141-0.925,0.341-1.514,0.6c-0.59,0.261-1.265,0.561-2.024,0.899c-0.579,0.36-1.054,0.63-1.424,0.81
			s-0.624,0.27-0.764,0.27c-0.261,0-0.734,0.11-1.425,0.33c-0.689,0.221-1.594,0.55-2.713,0.989c-0.6,0.221-1.233,0.445-1.903,0.675
			s-1.364,0.435-2.083,0.614l-1.859-0.39l-1.139,0.51c-0.38,0-0.765-0.005-1.154-0.015c-0.39-0.011-0.765-0.035-1.124-0.075
			c-0.58-0.021-1.015-0.101-1.304-0.24c-0.29-0.14-0.435-0.34-0.435-0.6l0.18-1.139l-0.18-0.21c-0.68,0-1.135-0.09-1.364-0.27
			c-0.23-0.181-0.345-0.6-0.345-1.26c0-0.3,0.015-0.799,0.045-1.499c0.03-0.699,0.075-1.608,0.135-2.728
			c0-0.1,0.064-0.31,0.195-0.63c0.129-0.319,0.194-0.549,0.194-0.689c-0.101-0.199-0.16-0.359-0.18-0.479
			c-0.021-0.12-0.03-0.229-0.03-0.329c0.04-0.78,0.125-1.739,0.255-2.878c0.13-1.14,0.295-2.488,0.495-4.047
			c0.239-0.939,0.439-1.999,0.6-3.178c-0.041-0.88-0.08-1.779-0.12-2.698c0.739-3.317,1.499-6.655,2.278-10.013
			c0.12-0.6,0.345-1.169,0.674-1.709c0.33-0.539,0.725-1.059,1.185-1.559c0.199-0.14,0.33-0.25,0.39-0.33
			c0.1-0.18,0.229-0.404,0.39-0.674c0.16-0.271,0.35-0.574,0.569-0.915c0.12-0.079,0.315-0.199,0.585-0.359
			c0.27-0.159,0.634-0.379,1.094-0.659c0.2-0.16,0.43-0.35,0.689-0.569s0.56-0.48,0.899-0.78c0.76-0.459,1.464-0.944,2.113-1.453
			c0.649-0.51,1.464-0.825,2.443-0.944c0.46-0.02,0.919-0.045,1.379-0.075s0.899-0.064,1.319-0.105
			c0.399-0.079,0.749-0.129,1.049-0.149c0.2-0.04,0.375-0.08,0.525-0.12c0.149-0.04,0.284-0.06,0.404-0.06s0.285,0.015,0.495,0.045
			c0.209,0.03,0.494,0.075,0.854,0.135c0.28,0.021,0.52,0.03,0.72,0.03c0.199,0,0.39-0.01,0.569-0.03
			c0.8,0.24,1.389,0.59,1.769,1.049c0.38,0.46,0.57,1.01,0.57,1.649c0,1.379-0.135,2.403-0.405,3.072
			c-0.27,0.67-0.694,1.005-1.273,1.005c-0.44,0-0.939-0.226-1.499-0.675c-0.56-0.45-2.068-0.675-4.526-0.675
			c-1.02,0.2-2.029,0.4-3.028,0.6c-0.1,0.16-0.215,0.28-0.345,0.359c-0.13,0.08-0.245,0.141-0.345,0.181l-1.049-0.39
			c-0.32,0.119-0.68,0.449-1.079,0.989c-0.4,0.539-0.82,1.278-1.26,2.218c-0.1,0.2-0.175,0.45-0.225,0.75s-0.075,0.649-0.075,1.049
			c-0.359,1.438-0.719,2.828-1.079,4.167c-0.34,1.438-0.614,2.528-0.824,3.268s-0.335,1.189-0.375,1.349
			c-0.06,0.2-0.109,0.39-0.149,0.569c-0.04,0.181-0.06,0.36-0.06,0.54c0,0.26,0.049,0.46,0.149,0.6c0.1,0.14,0.25,0.21,0.449,0.21
			c0.181,0,0.615-0.33,1.305-0.989c0.689-0.66,1.203-1.029,1.544-1.109c0.419-0.12,0.844-0.25,1.273-0.39s0.874-0.31,1.334-0.51
			c0.181-0.06,0.654-0.14,1.424-0.239c0.77-0.101,1.844-0.22,3.223-0.36l0.84,0.24l1.589-0.3l0.839,0.39
			c0.2,0.2,0.385,0.445,0.555,0.734c0.17,0.29,0.325,0.604,0.465,0.944c0,1.199-0.13,2.108-0.39,2.728
			c-0.26,0.62-0.649,0.93-1.169,0.93l-1.649-0.659c-1.358,0.14-2.703,0.274-4.031,0.404c-1.329,0.13-2.684,0.255-4.063,0.375
			c-1.679,0.34-2.968,0.89-3.867,1.648c-0.899,0.76-1.398,1.759-1.498,2.998c-0.021,0.26-0.091,0.659-0.21,1.199
			c-0.12,0.539-0.261,1.209-0.42,2.008l0.21,0.899c-0.18,0.859-0.32,1.669-0.42,2.429c-0.101,0.76-0.149,1.438-0.149,2.038
			c0,0.2,0.029,0.345,0.09,0.435c0.06,0.09,0.129,0.115,0.209,0.075c0.96-0.08,1.729-0.14,2.309-0.18
			c0.579-0.04,0.989-0.05,1.229-0.03c0.52,0.04,1.049,0.08,1.589,0.12l1.889-0.15c0.199-0.039,0.634-0.199,1.304-0.479
			c0.669-0.279,1.274-0.42,1.813-0.42c0.579,0,1.164-0.06,1.754-0.18c0.589-0.119,1.154-0.279,1.693-0.479
			c0.54-0.199,1.074-0.404,1.604-0.614c0.529-0.21,1.063-0.415,1.604-0.614c0.199-0.061,0.465-0.17,0.794-0.33
			C281.937,377.997,282.321,377.787,282.761,377.527z"/>
		<path fill="#0A62AF" d="M301.856,372.371c0.56,0.141,1.029,0.29,1.409,0.45c0.679-0.12,1.368-0.25,2.068-0.39h5.576
			c0.539,0,0.929,0.14,1.169,0.42c0.24,0.279,0.359,0.699,0.359,1.259c0,0.8-0.165,1.398-0.494,1.799
			c-0.33,0.399-0.805,0.6-1.424,0.6c-0.2,0-0.51-0.03-0.93-0.091c-0.42-0.06-0.729-0.09-0.93-0.09h-1.708
			c-0.72,0.141-1.439,0.271-2.158,0.39c-1.739-0.279-2.709-0.419-2.908-0.419c-0.26,0-0.604,0.035-1.034,0.104
			c-0.43,0.07-0.774,0.105-1.034,0.105c-0.36,0-0.649-0.075-0.869-0.226c-0.22-0.149-0.33-0.364-0.33-0.645
			c0-0.119,0.101-0.294,0.3-0.524c0.199-0.229,0.489-0.514,0.869-0.854c0.08-0.159,0.185-0.364,0.314-0.614s0.285-0.544,0.465-0.885
			c0.14-0.02,0.315-0.064,0.524-0.135C301.302,372.557,301.557,372.472,301.856,372.371z"/>
		<path fill="#0A62AF" d="M359.863,344.552c0.34,0,0.579,0.186,0.72,0.555c0.14,0.37,0.21,0.905,0.21,1.604
			c0,0.46-0.08,1.284-0.24,2.473c-0.16,1.189-0.391,2.743-0.69,4.662l0.36,1.948c-0.16,0.46-0.321,0.999-0.481,1.619
			c-0.16,0.619-0.3,1.299-0.42,2.038c-0.16,0.839-0.305,1.549-0.435,2.128c-0.131,0.58-0.256,1.05-0.376,1.409
			c-0.16,0.62-0.305,1.194-0.436,1.724c-0.13,0.53-0.225,1.055-0.284,1.574c-0.141,1.259-0.326,2.453-0.556,3.582
			c-0.23,1.13-0.535,2.214-0.916,3.253c-0.26,0.76-0.655,2.208-1.186,4.347s-1.206,4.946-2.026,8.424
			c-0.36,1.559-0.761,2.728-1.201,3.507s-0.921,1.169-1.44,1.169c-0.261,0-0.45-0.06-0.57-0.18
			c-0.119-0.119-0.199-0.329-0.239-0.629c-0.021-0.101-0.025-0.21-0.016-0.33c0.011-0.12,0.016-0.47,0.016-1.049
			c-0.021-0.221-0.08-0.44-0.18-0.66l0.6-2.338c-0.021-0.26-0.07-0.54-0.15-0.84c0-0.699,0.175-2.113,0.524-4.241
			c0.35-2.129,0.854-4.981,1.514-8.559c0.24-1.18,0.47-2.468,0.69-3.867c0-0.24-0.021-0.409-0.061-0.51
			c-0.04-0.1-0.12-0.15-0.239-0.15c-0.221,0.101-0.45,0.2-0.689,0.299l-0.75-0.358c-0.12,0.04-0.365,0.225-0.734,0.554
			c-0.37,0.328-0.645,0.493-0.824,0.493c-0.38,0-0.935-0.065-1.664-0.194c-0.729-0.13-1.273-0.194-1.634-0.194
			c-0.439,0-0.909,0.114-1.409,0.344c-0.499,0.229-1.019,0.573-1.559,1.031c-0.939,0.14-1.773,0.363-2.503,0.672
			c-0.729,0.31-1.374,0.703-1.934,1.181c-0.28,0.22-0.58,0.459-0.899,0.718c-0.16,0.14-0.274,0.635-0.345,1.485
			c-0.07,0.85-0.104,2.016-0.104,3.496c0,1.359,0.069,2.36,0.209,3s0.35,0.96,0.63,0.96c0.18,0,0.34-0.045,0.479-0.135
			s0.31-0.235,0.51-0.436c0.12-0.14,0.26-0.284,0.42-0.435c0.159-0.149,0.289-0.305,0.39-0.465l0.24-0.03
			c0.139-0.021,0.244,0.02,0.314,0.12c0.069,0.101,0.104,0.25,0.104,0.45c-0.2,0.44-0.395,0.84-0.584,1.2
			c-0.19,0.359-0.355,0.66-0.495,0.9c-0.619,0.939-1.229,1.87-1.828,2.79c-0.36,0.479-0.79,0.85-1.289,1.109
			c-0.5,0.261-1.079,0.391-1.739,0.391c-0.537,0-0.939-0.729-1.208-2.19c-0.27-1.46-0.403-3.641-0.403-6.541
			c0-1.12-0.069-2.096-0.209-2.926s-0.368-1.545-0.687-2.146c-0.298-0.52-0.507-0.979-0.627-1.38c-0.119-0.4-0.179-0.74-0.179-1.021
			c0-0.22,0.055-0.469,0.165-0.749c0.109-0.279,0.274-0.559,0.495-0.839c0.259-0.319,0.464-0.584,0.614-0.794
			c0.149-0.21,0.234-0.385,0.255-0.523c0.12-0.32,0.234-0.739,0.345-1.259c0.109-0.52,0.234-1.118,0.375-1.798
			c0.119-0.459,0.229-1.107,0.329-1.946c0.1-0.84,0.17-1.849,0.21-3.026c0.1-2.237,0.31-3.935,0.63-5.094
			c0.319-1.158,0.449-1.847,0.39-2.067l-0.18-0.749c0.039-0.419,0.1-0.958,0.18-1.617c0.079-0.659,0.189-1.418,0.329-2.277
			c0.181-0.12,0.38-0.295,0.6-0.524s0.45-0.514,0.689-0.854c1.379-0.519,2.129-0.779,2.249-0.779c0.719,0,1.259,0.19,1.618,0.57
			c0.36,0.38,0.54,0.919,0.54,1.618c0,0.2-0.056,0.479-0.165,0.839c-0.11,0.36-0.245,0.81-0.404,1.35
			c-0.181,0.459-0.375,1.309-0.585,2.547c-0.21,1.239-0.445,2.828-0.704,4.766c-0.181,1.398-0.375,2.713-0.585,3.941
			c-0.21,1.229-0.455,2.373-0.734,3.432c-0.04,0.141-0.07,0.311-0.09,0.51c0,0.3,0.05,0.515,0.149,0.645
			c0.101,0.131,0.25,0.195,0.45,0.195c0.739-0.06,1.409-0.12,2.009-0.18c0.199,0,0.889-0.219,2.068-0.657h2.308
			c0.319,0,0.784-0.035,1.395-0.104c0.609-0.07,1.063-0.105,1.363-0.105c0.28,0,0.705,0.065,1.274,0.194
			c0.569,0.13,1.015,0.194,1.334,0.194c0.24,0,0.55-0.039,0.93-0.119c0.379-0.08,0.839-0.22,1.379-0.419
			c0.259,0,0.479-0.03,0.659-0.09s0.27-0.149,0.27-0.27c0.101-0.26,0.215-0.58,0.345-0.96c0.13-0.379,0.265-0.818,0.405-1.318
			c0.04-0.46,0.095-1.009,0.165-1.649c0.069-0.639,0.164-1.389,0.284-2.248c0.28-1.599,0.484-2.907,0.615-3.927
			c0.129-1.02,0.194-1.739,0.194-2.158c0-0.16-0.021-0.31-0.06-0.45c-0.041-0.14-0.11-0.249-0.21-0.329
			c-0.16-0.181-0.34-0.4-0.54-0.66c0.14-0.399,0.29-0.709,0.45-0.929c0.459-0.699,0.849-1.284,1.169-1.754
			c0.319-0.47,0.579-0.805,0.779-1.004c0.319-0.34,0.704-0.675,1.154-1.005C358.709,345.196,359.244,344.872,359.863,344.552z"/>
		<path fill="#0A62AF" d="M359.953,377.527l0.18-0.21l0.09-0.3c0.54-0.738,1.488-1.703,2.848-2.893
			c1.359-1.188,2.299-2.153,2.818-2.893c0.199-0.319,0.43-0.55,0.689-0.689s0.52-0.21,0.779-0.21c0.699,0,1.289,0.175,1.769,0.524
			s0.799,0.875,0.96,1.574c0.139,0.619,0.27,1.244,0.39,1.873c0.119,0.63,0.22,1.265,0.3,1.904c0.139,0.399,0.31,1.004,0.509,1.813
			c0.2,0.81,0.35,1.273,0.45,1.394c0.1,0.2,0.25,0.345,0.449,0.435c0.2,0.09,0.45,0.135,0.75,0.135c0.359,0,0.729-0.064,1.109-0.194
			c0.379-0.13,0.769-0.354,1.169-0.675c0.3-0.26,0.614-0.524,0.944-0.794c0.329-0.271,0.654-0.535,0.974-0.795l1.199,2.758
			c-0.319,0.32-0.744,0.686-1.273,1.095c-0.53,0.41-1.165,0.884-1.904,1.424c-0.819,0.6-1.519,1.045-2.098,1.334
			c-0.58,0.29-1.02,0.435-1.319,0.435c-1.819,0-2.998-0.21-3.537-0.63c-0.54-0.419-1.14-1.588-1.799-3.507
			c-0.08-0.16-0.2-0.35-0.36-0.569s-0.34-0.48-0.539-0.779c-0.24-0.46-0.45-0.805-0.63-1.035c-0.18-0.229-0.329-0.345-0.449-0.345
			c-0.32,0-0.75,0.216-1.289,0.645c-0.54,0.431-1.199,1.075-1.979,1.934c-0.101-0.259-0.225-0.569-0.375-0.929
			c-0.149-0.36-0.305-0.779-0.465-1.259c-0.039-0.12-0.09-0.23-0.149-0.33C360.103,377.668,360.033,377.588,359.953,377.527z
			 M372.483,353.875c0.5,0,0.864,0.101,1.095,0.3c0.229,0.2,0.345,0.49,0.345,0.869c-0.12,0.561-0.221,1.03-0.3,1.409
			c-0.2,0.72-0.375,1.31-0.524,1.769c-0.15,0.46-0.266,0.79-0.345,0.989c-0.181,0.44-0.425,0.825-0.735,1.154
			c-0.31,0.33-0.685,0.625-1.124,0.885c-0.46,0.319-0.844,0.545-1.154,0.674c-0.31,0.131-0.524,0.186-0.644,0.165
			c-0.341-0.039-0.665-0.074-0.975-0.104c-0.311-0.03-0.614-0.045-0.914-0.045c-0.261-0.14-0.465-0.409-0.615-0.81
			c-0.149-0.399-0.225-0.939-0.225-1.619c0-0.6,0.364-1.354,1.095-2.263c0.729-0.909,1.373-1.395,1.933-1.454
			c0.34-0.42,0.739-0.899,1.199-1.439c0.2-0.139,0.46-0.254,0.779-0.345C371.694,353.92,372.064,353.875,372.483,353.875z"/>
		<path fill="#0A62AF" d="M377.101,377.527c0.08-0.14,0.185-0.294,0.314-0.465c0.131-0.169,0.285-0.374,0.465-0.614
			c0.2-0.159,0.46-0.39,0.779-0.689s0.68-0.649,1.079-1.049c0.36-0.399,0.8-0.895,1.319-1.484c0.52-0.589,1.148-1.304,1.889-2.144
			c0.319-0.339,0.72-0.773,1.199-1.304c0.479-0.529,1.049-1.164,1.708-1.903c0.56-0.66,1.159-1.149,1.799-1.469
			s1.319-0.479,2.039-0.479c0.719,0,1.248,0.225,1.589,0.674c0.339,0.45,0.509,1.104,0.509,1.964c0,0.46-0.17,1.339-0.509,2.638
			c-0.341,1.3-0.87,3.019-1.589,5.156c-0.181,0.4-0.351,0.779-0.51,1.14c-0.12,0.26-0.2,0.489-0.24,0.689
			c-0.04,0.199-0.06,0.35-0.06,0.449c0,0.12,0.069,0.27,0.21,0.45c0.1-0.061,0.194-0.14,0.284-0.24c0.09-0.1,0.195-0.22,0.315-0.359
			c0.159-0.3,0.404-0.615,0.734-0.944c0.329-0.33,0.724-0.694,1.184-1.095c0.18-0.34,0.415-0.675,0.705-1.004
			c0.289-0.33,0.614-0.635,0.974-0.914c0.08-0.08,0.185-0.21,0.315-0.39c0.13-0.181,0.284-0.37,0.464-0.57
			c0.26-0.259,0.57-0.529,0.93-0.81c0.359-0.279,0.779-0.569,1.259-0.869c0.54-0.279,1.024-0.499,1.454-0.659s0.805-0.24,1.124-0.24
			c0.619,0,1.169,0.15,1.649,0.45c0.479,0.3,0.889,0.77,1.229,1.409c0.399,1.239,0.779,2.388,1.14,3.447
			c0.22,0.619,0.464,1.079,0.734,1.379c0.27,0.3,0.574,0.449,0.914,0.449c0.26,0,0.495-0.05,0.704-0.149
			c0.21-0.1,0.405-0.25,0.585-0.45l1.199,2.758c-0.34,0.28-0.689,0.57-1.05,0.87c-0.359,0.3-0.709,0.589-1.049,0.869
			c-0.46,0.42-0.89,0.715-1.289,0.884c-0.399,0.171-0.8,0.255-1.199,0.255c-0.46,0-0.899-0.1-1.318-0.3
			c-0.42-0.199-0.78-0.499-1.08-0.899c-0.16-0.159-0.359-0.454-0.599-0.884c-0.24-0.43-0.521-0.964-0.84-1.604
			c-0.26-0.26-0.555-0.604-0.885-1.034c-0.329-0.43-0.714-0.935-1.153-1.515l-0.271-0.09c-0.379,0.12-0.754,0.3-1.123,0.54
			c-0.369,0.239-0.764,0.55-1.182,0.929c-0.898,0.8-1.548,1.3-1.947,1.499c-0.399,0.2-0.668,0.431-0.808,0.689
			c-0.28,0.479-0.759,1.1-1.438,1.859c-0.679,0.759-1.527,1.658-2.545,2.697c-0.26,0.26-0.52,0.515-0.778,0.765
			c-0.26,0.25-0.52,0.495-0.778,0.734c-0.26,0.22-0.555,0.375-0.884,0.465c-0.33,0.09-0.693,0.135-1.093,0.135
			c-0.8,0-1.234-0.275-1.304-0.824c-0.07-0.55-0.136-1.104-0.195-1.664c0.3-0.839,0.64-1.889,1.019-3.147
			c0.38-1.259,0.816-2.728,1.312-4.406c0-0.101,0.034-0.235,0.104-0.405s0.153-0.395,0.252-0.675c0.1-0.259,0.169-0.484,0.208-0.674
			c0.039-0.19,0.06-0.354,0.06-0.495c0-0.14-0.051-0.249-0.15-0.329s-0.26-0.12-0.479-0.12c-0.2,0-0.465,0.12-0.794,0.359
			c-0.33,0.24-0.725,0.62-1.185,1.14c-0.56,0.6-1.01,1.069-1.349,1.408c-0.341,0.341-0.57,0.54-0.689,0.6
			c-0.2,0.141-0.435,0.341-0.705,0.6c-0.27,0.26-0.574,0.55-0.914,0.869c-0.04,0.081-0.101,0.2-0.18,0.36
			c-0.08,0.16-0.21,0.34-0.39,0.539c-0.08-0.3-0.22-0.669-0.42-1.108C377.681,378.737,377.421,378.188,377.101,377.527z"/>
		<path fill="#0A62AF" d="M405.759,377.527l0.18-0.21l0.09-0.3c0.36-0.438,0.67-0.783,0.93-1.034c0.26-0.249,0.459-0.444,0.6-0.584
			c0.1-0.1,0.319-0.229,0.659-0.39s0.799-0.36,1.379-0.6l0.39-0.24c0.14-0.22,0.39-0.539,0.75-0.959
			c0.359-0.42,0.789-0.899,1.289-1.439c0.1-0.119,0.249-0.249,0.449-0.39c0.199-0.14,0.409-0.319,0.63-0.539
			c0.479-0.46,0.959-0.935,1.438-1.424c0.479-0.49,0.93-0.975,1.35-1.454c0.18-0.18,0.549-0.505,1.108-0.975
			c0.56-0.469,1.319-1.124,2.278-1.963c0.14-0.101,0.39-0.245,0.75-0.436c0.359-0.189,0.829-0.414,1.408-0.674
			c0.26-0.12,0.455-0.315,0.585-0.585s0.195-0.614,0.195-1.034c0.159-0.26,0.314-0.574,0.464-0.944
			c0.15-0.369,0.295-0.804,0.436-1.304c0.199-0.619,0.354-1.124,0.464-1.514c0.11-0.39,0.195-0.654,0.255-0.795
			c0.34-0.899,0.8-1.953,1.379-3.162c0.58-1.209,1.27-2.594,2.068-4.152c0.4-0.819,0.87-1.729,1.409-2.728
			c0.34-0.5,0.72-0.874,1.14-1.124c0.419-0.25,0.858-0.375,1.318-0.375c0.36,0,0.625,0.14,0.795,0.42
			c0.169,0.279,0.255,0.689,0.255,1.229c0,0.859-0.061,1.679-0.18,2.458c-0.12,0.779-0.341,1.51-0.66,2.188
			c-0.06,0.141-0.11,0.351-0.149,0.63c-0.041,0.28-0.08,0.619-0.12,1.02c-0.021,0.279-0.095,0.55-0.225,0.809
			c-0.131,0.261-0.295,0.5-0.495,0.72c0,0.141-0.02,0.305-0.06,0.495c-0.04,0.189-0.08,0.415-0.12,0.674l-0.42,0.54
			c-0.04,0.12-0.06,0.265-0.06,0.435s0,0.345,0,0.524c0,0.12-0.07,0.355-0.21,0.705s-0.35,0.844-0.63,1.483
			c-0.319,0.68-0.574,1.22-0.764,1.619c-0.19,0.399-0.296,0.649-0.315,0.749c-0.08,0.101-0.185,0.26-0.314,0.479
			c-0.13,0.221-0.285,0.47-0.465,0.75l0.09,0.659l-1.918,6.895c0,0.76,0.01,1.409,0.029,1.949c0.02,0.539,0.08,0.97,0.18,1.289
			c0.101,0.34,0.265,0.754,0.495,1.244c0.229,0.489,0.524,1.014,0.885,1.573c0.22,0.38,0.479,0.655,0.779,0.824
			c0.3,0.17,0.619,0.255,0.959,0.255c0.379,0,0.765-0.104,1.154-0.314s0.784-0.534,1.184-0.975c0.24,0.521,0.465,1.01,0.675,1.469
			c0.21,0.46,0.385,0.89,0.524,1.289c-0.1,0.061-0.314,0.266-0.645,0.615c-0.329,0.35-0.765,0.844-1.304,1.483
			c-0.32,0.38-0.715,0.655-1.185,0.824c-0.47,0.17-1.044,0.255-1.724,0.255c-1.499,0-2.718-0.39-3.657-1.169
			s-1.599-1.948-1.979-3.507c-0.08-0.32-0.149-0.6-0.21-0.84c-0.06-0.24-0.119-0.459-0.18-0.659c-0.14-0.38-0.38-0.79-0.72-1.229
			c-0.14,0.2-0.25,0.35-0.329,0.45c-0.24,0.16-0.505,0.39-0.795,0.689s-0.584,0.68-0.884,1.139c-0.061,0.2-0.17,0.445-0.33,0.734
			c-0.16,0.29-0.38,0.635-0.659,1.034c-0.64,0.74-1.289,1.484-1.949,2.233c-0.659,0.75-1.318,1.484-1.979,2.203
			c-0.898,1-1.729,1.734-2.487,2.204c-0.76,0.469-1.42,0.704-1.979,0.704c-1,0-1.739-0.235-2.219-0.704
			c-0.479-0.47-0.72-1.204-0.72-2.204c0-0.459,0.17-1.104,0.51-1.934c0.34-0.829,0.51-1.443,0.51-1.843l-0.18-0.48L405.759,377.527z
			 M420.838,368.954c0-0.1-0.041-0.25-0.12-0.45c-0.3,0.3-0.67,0.65-1.109,1.05s-0.959,0.839-1.559,1.319
			c-0.141,0.319-0.46,0.824-0.96,1.514c-0.499,0.689-1.198,1.544-2.098,2.563c-0.261,0.3-0.61,0.814-1.05,1.544
			c-0.439,0.73-0.979,1.624-1.618,2.684c-0.221,0.419-0.45,0.929-0.689,1.528c0,0.12,0.079,0.25,0.239,0.39
			c0.6-0.18,1.334-0.704,2.203-1.573c0.87-0.87,1.904-2.073,3.103-3.612c1.239-1.639,2.159-3.033,2.759-4.183
			C420.538,370.578,420.838,369.653,420.838,368.954z"/>
	</g>
</g>
</svg>
